<mxfile host="app.diagrams.net" modified="2024-03-08T03:33:34.257Z" agent="Mozilla/5.0 (Windows NT 10.0; Win64; x64) AppleWebKit/537.36 (KHTML, like Gecko) Chrome/121.0.0.0 Safari/537.36" etag="mh5W2sdNKxq7y9WgkfU9" version="24.0.0" type="github">
  <diagram name="Page-1" id="x2UXXAh2kb77U2BF5eBp">
    <mxGraphModel dx="7070" dy="5690" grid="0" gridSize="10" guides="1" tooltips="1" connect="1" arrows="1" fold="1" page="1" pageScale="1" pageWidth="850" pageHeight="1100" math="0" shadow="0">
      <root>
        <mxCell id="0" />
        <mxCell id="1" parent="0" />
        <mxCell id="yHJsmsNDHW4LlEaQfbGD-15" value="" style="edgeStyle=orthogonalEdgeStyle;rounded=0;orthogonalLoop=1;jettySize=auto;html=1;strokeWidth=3;fontStyle=1" edge="1" parent="1" source="yHJsmsNDHW4LlEaQfbGD-1" target="yHJsmsNDHW4LlEaQfbGD-12">
          <mxGeometry relative="1" as="geometry" />
        </mxCell>
        <mxCell id="yHJsmsNDHW4LlEaQfbGD-1" value="start" style="ellipse;whiteSpace=wrap;html=1;strokeWidth=3;fontStyle=1" vertex="1" parent="1">
          <mxGeometry x="297.5" width="80" height="50" as="geometry" />
        </mxCell>
        <mxCell id="yHJsmsNDHW4LlEaQfbGD-25" value="" style="edgeStyle=orthogonalEdgeStyle;rounded=0;orthogonalLoop=1;jettySize=auto;html=1;strokeWidth=3;fontStyle=1" edge="1" parent="1" target="yHJsmsNDHW4LlEaQfbGD-19">
          <mxGeometry relative="1" as="geometry">
            <mxPoint x="337.5" y="470" as="sourcePoint" />
          </mxGeometry>
        </mxCell>
        <mxCell id="yHJsmsNDHW4LlEaQfbGD-14" value="" style="edgeStyle=orthogonalEdgeStyle;rounded=0;orthogonalLoop=1;jettySize=auto;html=1;strokeWidth=3;fontStyle=1" edge="1" parent="1" source="yHJsmsNDHW4LlEaQfbGD-12" target="yHJsmsNDHW4LlEaQfbGD-13">
          <mxGeometry relative="1" as="geometry" />
        </mxCell>
        <mxCell id="yHJsmsNDHW4LlEaQfbGD-12" value="The system displays welcome message to user&amp;nbsp;" style="rounded=1;whiteSpace=wrap;html=1;absoluteArcSize=1;arcSize=14;strokeWidth=3;fontStyle=1" vertex="1" parent="1">
          <mxGeometry x="285" y="110" width="105" height="80" as="geometry" />
        </mxCell>
        <mxCell id="yHJsmsNDHW4LlEaQfbGD-16" value="" style="edgeStyle=orthogonalEdgeStyle;rounded=0;orthogonalLoop=1;jettySize=auto;html=1;strokeWidth=3;fontStyle=1" edge="1" parent="1" source="yHJsmsNDHW4LlEaQfbGD-13">
          <mxGeometry relative="1" as="geometry">
            <mxPoint x="337.5" y="410" as="targetPoint" />
          </mxGeometry>
        </mxCell>
        <mxCell id="yHJsmsNDHW4LlEaQfbGD-13" value="System prompts user to input pin" style="rounded=1;whiteSpace=wrap;html=1;absoluteArcSize=1;arcSize=14;strokeWidth=3;fontStyle=1" vertex="1" parent="1">
          <mxGeometry x="287.5" y="250" width="100" height="80" as="geometry" />
        </mxCell>
        <mxCell id="yHJsmsNDHW4LlEaQfbGD-21" value="" style="edgeStyle=orthogonalEdgeStyle;rounded=0;orthogonalLoop=1;jettySize=auto;html=1;strokeWidth=3;fontStyle=1" edge="1" parent="1" source="yHJsmsNDHW4LlEaQfbGD-19" target="yHJsmsNDHW4LlEaQfbGD-20">
          <mxGeometry relative="1" as="geometry" />
        </mxCell>
        <mxCell id="yHJsmsNDHW4LlEaQfbGD-19" value="System validates user pin" style="strokeWidth=3;html=1;shape=mxgraph.flowchart.delay;whiteSpace=wrap;fontStyle=1" vertex="1" parent="1">
          <mxGeometry x="287.5" y="550" width="100" height="60" as="geometry" />
        </mxCell>
        <mxCell id="yHJsmsNDHW4LlEaQfbGD-22" value="No" style="edgeStyle=orthogonalEdgeStyle;rounded=0;orthogonalLoop=1;jettySize=auto;html=1;entryX=1.006;entryY=0.144;entryDx=0;entryDy=0;entryPerimeter=0;strokeWidth=3;fontStyle=1" edge="1" parent="1" source="yHJsmsNDHW4LlEaQfbGD-20" target="yHJsmsNDHW4LlEaQfbGD-38">
          <mxGeometry relative="1" as="geometry">
            <mxPoint x="400" y="420" as="targetPoint" />
            <Array as="points">
              <mxPoint x="460" y="720" />
              <mxPoint x="460" y="420" />
              <mxPoint x="400" y="420" />
            </Array>
          </mxGeometry>
        </mxCell>
        <mxCell id="yHJsmsNDHW4LlEaQfbGD-24" value="yes" style="edgeStyle=orthogonalEdgeStyle;rounded=0;orthogonalLoop=1;jettySize=auto;html=1;strokeWidth=3;fontStyle=1" edge="1" parent="1" source="yHJsmsNDHW4LlEaQfbGD-20" target="yHJsmsNDHW4LlEaQfbGD-23">
          <mxGeometry relative="1" as="geometry" />
        </mxCell>
        <mxCell id="yHJsmsNDHW4LlEaQfbGD-20" value="&lt;font style=&quot;font-size: 10px;&quot;&gt;Is the user&amp;nbsp;&lt;/font&gt;&lt;div&gt;&lt;font style=&quot;font-size: 10px;&quot;&gt;pin correct?&lt;/font&gt;&lt;/div&gt;" style="rhombus;whiteSpace=wrap;html=1;strokeWidth=3;fontStyle=1" vertex="1" parent="1">
          <mxGeometry x="297.5" y="680" width="80" height="80" as="geometry" />
        </mxCell>
        <mxCell id="yHJsmsNDHW4LlEaQfbGD-23" value="System prompts user to make a selection from:&lt;div&gt;&lt;ul&gt;&lt;li&gt;&lt;span style=&quot;background-color: initial;&quot;&gt;Transfer&lt;/span&gt;&lt;/li&gt;&lt;li&gt;Withdrawal&lt;/li&gt;&lt;li&gt;Deposit&lt;/li&gt;&lt;li&gt;Check Balance&lt;/li&gt;&lt;/ul&gt;&lt;/div&gt;" style="rounded=1;whiteSpace=wrap;html=1;absoluteArcSize=1;arcSize=14;strokeWidth=3;align=left;fontStyle=1" vertex="1" parent="1">
          <mxGeometry x="271.25" y="830" width="132.5" height="130" as="geometry" />
        </mxCell>
        <mxCell id="yHJsmsNDHW4LlEaQfbGD-144" style="edgeStyle=orthogonalEdgeStyle;rounded=0;orthogonalLoop=1;jettySize=auto;html=1;strokeWidth=3;fontStyle=1" edge="1" parent="1" source="yHJsmsNDHW4LlEaQfbGD-23" target="yHJsmsNDHW4LlEaQfbGD-35">
          <mxGeometry relative="1" as="geometry">
            <Array as="points">
              <mxPoint x="337" y="1020" />
              <mxPoint x="800" y="1020" />
            </Array>
          </mxGeometry>
        </mxCell>
        <mxCell id="yHJsmsNDHW4LlEaQfbGD-171" value="" style="edgeStyle=orthogonalEdgeStyle;rounded=0;orthogonalLoop=1;jettySize=auto;html=1;strokeWidth=3;fontStyle=1" edge="1" parent="1" source="yHJsmsNDHW4LlEaQfbGD-35" target="yHJsmsNDHW4LlEaQfbGD-170">
          <mxGeometry relative="1" as="geometry" />
        </mxCell>
        <mxCell id="yHJsmsNDHW4LlEaQfbGD-35" value="cash Withdrawal" style="rounded=1;whiteSpace=wrap;html=1;absoluteArcSize=1;arcSize=14;strokeWidth=3;fontStyle=1" vertex="1" parent="1">
          <mxGeometry x="754.38" y="1080" width="100" height="100" as="geometry" />
        </mxCell>
        <mxCell id="yHJsmsNDHW4LlEaQfbGD-38" value="User inputs pin" style="shape=parallelogram;perimeter=parallelogramPerimeter;whiteSpace=wrap;html=1;fixedSize=1;strokeWidth=3;fontStyle=1" vertex="1" parent="1">
          <mxGeometry x="277.5" y="410" width="112.5" height="60" as="geometry" />
        </mxCell>
        <mxCell id="yHJsmsNDHW4LlEaQfbGD-152" value="" style="edgeStyle=orthogonalEdgeStyle;rounded=0;orthogonalLoop=1;jettySize=auto;html=1;strokeWidth=3;fontStyle=1" edge="1" parent="1" source="yHJsmsNDHW4LlEaQfbGD-77" target="yHJsmsNDHW4LlEaQfbGD-151">
          <mxGeometry relative="1" as="geometry" />
        </mxCell>
        <mxCell id="yHJsmsNDHW4LlEaQfbGD-77" value="user selects user&#39;s account type:&lt;div&gt;Checking&lt;/div&gt;&lt;div&gt;Saving&lt;/div&gt;" style="rounded=1;whiteSpace=wrap;html=1;absoluteArcSize=1;arcSize=14;strokeWidth=3;fontStyle=1" vertex="1" parent="1">
          <mxGeometry x="187.5" y="1230" width="112.5" height="60" as="geometry" />
        </mxCell>
        <mxCell id="yHJsmsNDHW4LlEaQfbGD-139" value="" style="edgeStyle=orthogonalEdgeStyle;rounded=0;orthogonalLoop=1;jettySize=auto;html=1;strokeWidth=3;fontStyle=1" edge="1" parent="1" source="yHJsmsNDHW4LlEaQfbGD-23" target="yHJsmsNDHW4LlEaQfbGD-34">
          <mxGeometry relative="1" as="geometry">
            <Array as="points">
              <mxPoint x="338" y="1020" />
              <mxPoint x="250" y="1020" />
            </Array>
          </mxGeometry>
        </mxCell>
        <mxCell id="yHJsmsNDHW4LlEaQfbGD-150" value="" style="edgeStyle=orthogonalEdgeStyle;rounded=0;orthogonalLoop=1;jettySize=auto;html=1;strokeWidth=3;fontStyle=1" edge="1" parent="1" source="yHJsmsNDHW4LlEaQfbGD-34" target="yHJsmsNDHW4LlEaQfbGD-77">
          <mxGeometry relative="1" as="geometry" />
        </mxCell>
        <mxCell id="yHJsmsNDHW4LlEaQfbGD-34" value="Transfer" style="rounded=1;whiteSpace=wrap;html=1;absoluteArcSize=1;arcSize=14;strokeWidth=3;fontStyle=1" vertex="1" parent="1">
          <mxGeometry x="193.75" y="1080" width="100" height="100" as="geometry" />
        </mxCell>
        <mxCell id="yHJsmsNDHW4LlEaQfbGD-142" style="edgeStyle=orthogonalEdgeStyle;rounded=0;orthogonalLoop=1;jettySize=auto;html=1;exitX=0.5;exitY=1;exitDx=0;exitDy=0;strokeWidth=3;fontStyle=1" edge="1" parent="1" source="yHJsmsNDHW4LlEaQfbGD-23" target="yHJsmsNDHW4LlEaQfbGD-141">
          <mxGeometry relative="1" as="geometry">
            <Array as="points">
              <mxPoint x="337" y="1020" />
              <mxPoint x="480" y="1020" />
            </Array>
          </mxGeometry>
        </mxCell>
        <mxCell id="yHJsmsNDHW4LlEaQfbGD-167" value="" style="edgeStyle=orthogonalEdgeStyle;rounded=0;orthogonalLoop=1;jettySize=auto;html=1;strokeWidth=3;fontStyle=1" edge="1" parent="1" source="yHJsmsNDHW4LlEaQfbGD-141" target="yHJsmsNDHW4LlEaQfbGD-166">
          <mxGeometry relative="1" as="geometry" />
        </mxCell>
        <mxCell id="yHJsmsNDHW4LlEaQfbGD-141" value="Check Balance" style="rounded=1;whiteSpace=wrap;html=1;absoluteArcSize=1;arcSize=14;strokeWidth=3;fontStyle=1" vertex="1" parent="1">
          <mxGeometry x="430" y="1080" width="100" height="100" as="geometry" />
        </mxCell>
        <mxCell id="yHJsmsNDHW4LlEaQfbGD-148" value="" style="group;strokeWidth=3;fontStyle=1" vertex="1" connectable="0" parent="1">
          <mxGeometry x="-290" y="1020" width="409" height="850" as="geometry" />
        </mxCell>
        <mxCell id="yHJsmsNDHW4LlEaQfbGD-32" value="Deposit" style="rounded=1;whiteSpace=wrap;html=1;absoluteArcSize=1;arcSize=14;strokeWidth=3;fontStyle=1" vertex="1" parent="yHJsmsNDHW4LlEaQfbGD-148">
          <mxGeometry x="101" y="60" width="100" height="100" as="geometry" />
        </mxCell>
        <mxCell id="yHJsmsNDHW4LlEaQfbGD-83" value="User select account type:&lt;div&gt;Checking&lt;/div&gt;&lt;div&gt;Savings&lt;/div&gt;" style="rounded=1;whiteSpace=wrap;html=1;absoluteArcSize=1;arcSize=14;strokeWidth=3;fontStyle=1" vertex="1" parent="yHJsmsNDHW4LlEaQfbGD-148">
          <mxGeometry x="101" y="220" width="100" height="100" as="geometry" />
        </mxCell>
        <mxCell id="yHJsmsNDHW4LlEaQfbGD-93" value="" style="edgeStyle=orthogonalEdgeStyle;rounded=0;orthogonalLoop=1;jettySize=auto;html=1;strokeWidth=3;fontStyle=1" edge="1" parent="yHJsmsNDHW4LlEaQfbGD-148" source="yHJsmsNDHW4LlEaQfbGD-32" target="yHJsmsNDHW4LlEaQfbGD-83">
          <mxGeometry relative="1" as="geometry" />
        </mxCell>
        <mxCell id="yHJsmsNDHW4LlEaQfbGD-94" value="Check Deposit" style="rounded=1;whiteSpace=wrap;html=1;absoluteArcSize=1;arcSize=14;strokeWidth=3;fontStyle=1" vertex="1" parent="yHJsmsNDHW4LlEaQfbGD-148">
          <mxGeometry x="171" y="390" width="110" height="50" as="geometry" />
        </mxCell>
        <mxCell id="yHJsmsNDHW4LlEaQfbGD-102" style="edgeStyle=orthogonalEdgeStyle;rounded=0;orthogonalLoop=1;jettySize=auto;html=1;strokeWidth=3;fontStyle=1" edge="1" parent="yHJsmsNDHW4LlEaQfbGD-148" source="yHJsmsNDHW4LlEaQfbGD-83" target="yHJsmsNDHW4LlEaQfbGD-94">
          <mxGeometry relative="1" as="geometry" />
        </mxCell>
        <mxCell id="yHJsmsNDHW4LlEaQfbGD-99" style="edgeStyle=orthogonalEdgeStyle;rounded=0;orthogonalLoop=1;jettySize=auto;html=1;exitX=0.5;exitY=1;exitDx=0;exitDy=0;strokeWidth=3;fontStyle=1" edge="1" parent="yHJsmsNDHW4LlEaQfbGD-148" source="yHJsmsNDHW4LlEaQfbGD-83" target="yHJsmsNDHW4LlEaQfbGD-95">
          <mxGeometry relative="1" as="geometry" />
        </mxCell>
        <mxCell id="yHJsmsNDHW4LlEaQfbGD-95" value="Cash Deposit" style="rounded=1;whiteSpace=wrap;html=1;absoluteArcSize=1;arcSize=14;strokeWidth=3;fontStyle=1" vertex="1" parent="yHJsmsNDHW4LlEaQfbGD-148">
          <mxGeometry x="11" y="390" width="110" height="50" as="geometry" />
        </mxCell>
        <mxCell id="yHJsmsNDHW4LlEaQfbGD-104" value="&amp;nbsp;user inputs&lt;div&gt;&amp;nbsp;cash&amp;nbsp;&lt;div&gt;amount&amp;nbsp;&lt;/div&gt;&lt;/div&gt;" style="shape=parallelogram;perimeter=parallelogramPerimeter;whiteSpace=wrap;html=1;fixedSize=1;size=11;strokeWidth=3;fontStyle=1" vertex="1" parent="yHJsmsNDHW4LlEaQfbGD-148">
          <mxGeometry y="490" width="120" height="60" as="geometry" />
        </mxCell>
        <mxCell id="yHJsmsNDHW4LlEaQfbGD-119" value="" style="edgeStyle=orthogonalEdgeStyle;rounded=0;orthogonalLoop=1;jettySize=auto;html=1;strokeWidth=3;fontStyle=1" edge="1" parent="yHJsmsNDHW4LlEaQfbGD-148" source="yHJsmsNDHW4LlEaQfbGD-95" target="yHJsmsNDHW4LlEaQfbGD-104">
          <mxGeometry relative="1" as="geometry">
            <Array as="points">
              <mxPoint x="61" y="450" />
              <mxPoint x="61" y="450" />
            </Array>
          </mxGeometry>
        </mxCell>
        <mxCell id="yHJsmsNDHW4LlEaQfbGD-149" style="edgeStyle=orthogonalEdgeStyle;rounded=0;orthogonalLoop=1;jettySize=auto;html=1;strokeWidth=3;fontStyle=1" edge="1" parent="yHJsmsNDHW4LlEaQfbGD-148" source="yHJsmsNDHW4LlEaQfbGD-107" target="yHJsmsNDHW4LlEaQfbGD-111">
          <mxGeometry relative="1" as="geometry" />
        </mxCell>
        <mxCell id="yHJsmsNDHW4LlEaQfbGD-107" value="System processes amount" style="strokeWidth=3;html=1;shape=mxgraph.flowchart.delay;whiteSpace=wrap;fontStyle=1" vertex="1" parent="yHJsmsNDHW4LlEaQfbGD-148">
          <mxGeometry x="101" y="660" width="100" height="60" as="geometry" />
        </mxCell>
        <mxCell id="yHJsmsNDHW4LlEaQfbGD-111" value="User confirms amount" style="rounded=1;whiteSpace=wrap;html=1;strokeWidth=3;fontStyle=1" vertex="1" parent="yHJsmsNDHW4LlEaQfbGD-148">
          <mxGeometry x="101" y="750" width="100" height="40" as="geometry" />
        </mxCell>
        <mxCell id="yHJsmsNDHW4LlEaQfbGD-117" value="user inputs&amp;nbsp;&lt;div&gt;check&amp;nbsp;&lt;div&gt;amount&lt;/div&gt;&lt;/div&gt;" style="shape=parallelogram;perimeter=parallelogramPerimeter;whiteSpace=wrap;html=1;fixedSize=1;strokeWidth=3;fontStyle=1" vertex="1" parent="yHJsmsNDHW4LlEaQfbGD-148">
          <mxGeometry x="161" y="490" width="120" height="60" as="geometry" />
        </mxCell>
        <mxCell id="yHJsmsNDHW4LlEaQfbGD-118" value="" style="edgeStyle=orthogonalEdgeStyle;rounded=0;orthogonalLoop=1;jettySize=auto;html=1;strokeWidth=3;fontStyle=1" edge="1" parent="yHJsmsNDHW4LlEaQfbGD-148" source="yHJsmsNDHW4LlEaQfbGD-94" target="yHJsmsNDHW4LlEaQfbGD-117">
          <mxGeometry relative="1" as="geometry">
            <Array as="points">
              <mxPoint x="221" y="460" />
              <mxPoint x="221" y="460" />
            </Array>
          </mxGeometry>
        </mxCell>
        <mxCell id="yHJsmsNDHW4LlEaQfbGD-122" value="User deposits check" style="rounded=1;whiteSpace=wrap;html=1;absoluteArcSize=1;arcSize=14;strokeWidth=3;fontStyle=1" vertex="1" parent="yHJsmsNDHW4LlEaQfbGD-148">
          <mxGeometry x="171" y="580" width="100" height="40" as="geometry" />
        </mxCell>
        <mxCell id="yHJsmsNDHW4LlEaQfbGD-132" value="" style="edgeStyle=orthogonalEdgeStyle;rounded=0;orthogonalLoop=1;jettySize=auto;html=1;strokeWidth=3;fontStyle=1" edge="1" parent="yHJsmsNDHW4LlEaQfbGD-148" source="yHJsmsNDHW4LlEaQfbGD-117" target="yHJsmsNDHW4LlEaQfbGD-122">
          <mxGeometry relative="1" as="geometry" />
        </mxCell>
        <mxCell id="yHJsmsNDHW4LlEaQfbGD-136" style="edgeStyle=orthogonalEdgeStyle;rounded=0;orthogonalLoop=1;jettySize=auto;html=1;strokeWidth=3;fontStyle=1" edge="1" parent="yHJsmsNDHW4LlEaQfbGD-148" source="yHJsmsNDHW4LlEaQfbGD-126" target="yHJsmsNDHW4LlEaQfbGD-107">
          <mxGeometry relative="1" as="geometry" />
        </mxCell>
        <mxCell id="yHJsmsNDHW4LlEaQfbGD-126" value="User deposits&amp;nbsp;&lt;div&gt;cash&amp;nbsp;&lt;/div&gt;" style="rounded=1;whiteSpace=wrap;html=1;absoluteArcSize=1;arcSize=14;strokeWidth=3;fontStyle=1" vertex="1" parent="yHJsmsNDHW4LlEaQfbGD-148">
          <mxGeometry x="6" y="580" width="110" height="40" as="geometry" />
        </mxCell>
        <mxCell id="yHJsmsNDHW4LlEaQfbGD-127" value="" style="edgeStyle=orthogonalEdgeStyle;rounded=0;orthogonalLoop=1;jettySize=auto;html=1;strokeWidth=3;fontStyle=1" edge="1" parent="yHJsmsNDHW4LlEaQfbGD-148" source="yHJsmsNDHW4LlEaQfbGD-104" target="yHJsmsNDHW4LlEaQfbGD-126">
          <mxGeometry relative="1" as="geometry" />
        </mxCell>
        <mxCell id="yHJsmsNDHW4LlEaQfbGD-133" style="edgeStyle=orthogonalEdgeStyle;rounded=0;orthogonalLoop=1;jettySize=auto;html=1;exitX=0.5;exitY=1;exitDx=0;exitDy=0;strokeWidth=3;fontStyle=1" edge="1" parent="yHJsmsNDHW4LlEaQfbGD-148" source="yHJsmsNDHW4LlEaQfbGD-111" target="yHJsmsNDHW4LlEaQfbGD-111">
          <mxGeometry relative="1" as="geometry" />
        </mxCell>
        <mxCell id="yHJsmsNDHW4LlEaQfbGD-135" style="edgeStyle=orthogonalEdgeStyle;rounded=0;orthogonalLoop=1;jettySize=auto;html=1;entryX=0.5;entryY=0;entryDx=0;entryDy=0;entryPerimeter=0;strokeWidth=3;fontStyle=1" edge="1" parent="yHJsmsNDHW4LlEaQfbGD-148" source="yHJsmsNDHW4LlEaQfbGD-122" target="yHJsmsNDHW4LlEaQfbGD-107">
          <mxGeometry relative="1" as="geometry" />
        </mxCell>
        <mxCell id="yHJsmsNDHW4LlEaQfbGD-137" value="System confirms deposit" style="whiteSpace=wrap;html=1;rounded=1;strokeWidth=3;fontStyle=1" vertex="1" parent="yHJsmsNDHW4LlEaQfbGD-148">
          <mxGeometry x="98.5" y="810" width="105" height="40" as="geometry" />
        </mxCell>
        <mxCell id="yHJsmsNDHW4LlEaQfbGD-138" value="" style="edgeStyle=orthogonalEdgeStyle;rounded=0;orthogonalLoop=1;jettySize=auto;html=1;strokeWidth=3;fontStyle=1" edge="1" parent="yHJsmsNDHW4LlEaQfbGD-148" source="yHJsmsNDHW4LlEaQfbGD-111" target="yHJsmsNDHW4LlEaQfbGD-137">
          <mxGeometry relative="1" as="geometry" />
        </mxCell>
        <mxCell id="yHJsmsNDHW4LlEaQfbGD-217" value="" style="edgeStyle=orthogonalEdgeStyle;rounded=0;orthogonalLoop=1;jettySize=auto;html=1;strokeWidth=3;fontStyle=1" edge="1" parent="1" source="yHJsmsNDHW4LlEaQfbGD-151" target="yHJsmsNDHW4LlEaQfbGD-155">
          <mxGeometry relative="1" as="geometry" />
        </mxCell>
        <mxCell id="yHJsmsNDHW4LlEaQfbGD-151" value="Select recipient&#39;s account type" style="whiteSpace=wrap;html=1;rounded=1;arcSize=14;strokeWidth=3;fontStyle=1" vertex="1" parent="1">
          <mxGeometry x="183.75" y="1340" width="120" height="60" as="geometry" />
        </mxCell>
        <mxCell id="yHJsmsNDHW4LlEaQfbGD-159" value="" style="edgeStyle=orthogonalEdgeStyle;rounded=0;orthogonalLoop=1;jettySize=auto;html=1;strokeWidth=3;fontStyle=1" edge="1" parent="1" source="yHJsmsNDHW4LlEaQfbGD-155" target="yHJsmsNDHW4LlEaQfbGD-156">
          <mxGeometry relative="1" as="geometry" />
        </mxCell>
        <mxCell id="yHJsmsNDHW4LlEaQfbGD-155" value="User inputs&amp;nbsp;&lt;div&gt;amount&lt;/div&gt;" style="shape=parallelogram;perimeter=parallelogramPerimeter;whiteSpace=wrap;html=1;fixedSize=1;strokeWidth=3;fontStyle=1" vertex="1" parent="1">
          <mxGeometry x="183.75" y="1440" width="120" height="60" as="geometry" />
        </mxCell>
        <mxCell id="yHJsmsNDHW4LlEaQfbGD-158" value="No" style="edgeStyle=orthogonalEdgeStyle;rounded=0;orthogonalLoop=1;jettySize=auto;html=1;entryX=1;entryY=0.25;entryDx=0;entryDy=0;strokeWidth=3;fontStyle=1" edge="1" parent="1" source="yHJsmsNDHW4LlEaQfbGD-156" target="yHJsmsNDHW4LlEaQfbGD-155">
          <mxGeometry relative="1" as="geometry">
            <Array as="points">
              <mxPoint x="350" y="1580" />
              <mxPoint x="350" y="1456" />
            </Array>
          </mxGeometry>
        </mxCell>
        <mxCell id="yHJsmsNDHW4LlEaQfbGD-163" value="yes" style="edgeStyle=orthogonalEdgeStyle;rounded=0;orthogonalLoop=1;jettySize=auto;html=1;strokeWidth=3;fontStyle=1" edge="1" parent="1" source="yHJsmsNDHW4LlEaQfbGD-156" target="yHJsmsNDHW4LlEaQfbGD-162">
          <mxGeometry relative="1" as="geometry" />
        </mxCell>
        <mxCell id="yHJsmsNDHW4LlEaQfbGD-156" value="&lt;font style=&quot;font-size: 11px;&quot;&gt;Is transfer amount&amp;nbsp;&lt;/font&gt;&lt;div&gt;&lt;font style=&quot;font-size: 11px;&quot;&gt;correct?&lt;/font&gt;&lt;/div&gt;" style="rhombus;whiteSpace=wrap;html=1;strokeWidth=3;fontStyle=1" vertex="1" parent="1">
          <mxGeometry x="203.75" y="1540" width="80" height="80" as="geometry" />
        </mxCell>
        <mxCell id="yHJsmsNDHW4LlEaQfbGD-165" value="" style="edgeStyle=orthogonalEdgeStyle;rounded=0;orthogonalLoop=1;jettySize=auto;html=1;strokeWidth=3;fontStyle=1" edge="1" parent="1" source="yHJsmsNDHW4LlEaQfbGD-162" target="yHJsmsNDHW4LlEaQfbGD-164">
          <mxGeometry relative="1" as="geometry" />
        </mxCell>
        <mxCell id="yHJsmsNDHW4LlEaQfbGD-162" value="System processes amount" style="strokeWidth=3;html=1;shape=mxgraph.flowchart.delay;whiteSpace=wrap;fontStyle=1" vertex="1" parent="1">
          <mxGeometry x="197.5" y="1660" width="100" height="60" as="geometry" />
        </mxCell>
        <mxCell id="yHJsmsNDHW4LlEaQfbGD-227" style="edgeStyle=orthogonalEdgeStyle;rounded=0;orthogonalLoop=1;jettySize=auto;html=1;strokeWidth=3;fontStyle=1" edge="1" parent="1" source="yHJsmsNDHW4LlEaQfbGD-164" target="yHJsmsNDHW4LlEaQfbGD-187">
          <mxGeometry relative="1" as="geometry">
            <Array as="points">
              <mxPoint x="248" y="2050" />
              <mxPoint x="335" y="2050" />
            </Array>
          </mxGeometry>
        </mxCell>
        <mxCell id="yHJsmsNDHW4LlEaQfbGD-164" value="System confirms transfer" style="rounded=1;whiteSpace=wrap;html=1;absoluteArcSize=1;arcSize=14;strokeWidth=3;fontStyle=1" vertex="1" parent="1">
          <mxGeometry x="197.5" y="1760" width="100" height="40" as="geometry" />
        </mxCell>
        <mxCell id="yHJsmsNDHW4LlEaQfbGD-169" value="" style="edgeStyle=orthogonalEdgeStyle;rounded=0;orthogonalLoop=1;jettySize=auto;html=1;strokeWidth=3;fontStyle=1" edge="1" parent="1" source="yHJsmsNDHW4LlEaQfbGD-166">
          <mxGeometry relative="1" as="geometry">
            <mxPoint x="480" y="1340" as="targetPoint" />
          </mxGeometry>
        </mxCell>
        <mxCell id="yHJsmsNDHW4LlEaQfbGD-166" value="user selects user&#39;s account type:&lt;div&gt;Checking&lt;/div&gt;&lt;div&gt;Saving&lt;/div&gt;" style="rounded=1;whiteSpace=wrap;html=1;absoluteArcSize=1;arcSize=14;strokeWidth=3;fontStyle=1" vertex="1" parent="1">
          <mxGeometry x="423.75" y="1230" width="112.5" height="60" as="geometry" />
        </mxCell>
        <mxCell id="yHJsmsNDHW4LlEaQfbGD-173" value="" style="edgeStyle=orthogonalEdgeStyle;rounded=0;orthogonalLoop=1;jettySize=auto;html=1;strokeWidth=3;fontStyle=1" edge="1" parent="1" source="yHJsmsNDHW4LlEaQfbGD-170" target="yHJsmsNDHW4LlEaQfbGD-172">
          <mxGeometry relative="1" as="geometry" />
        </mxCell>
        <mxCell id="yHJsmsNDHW4LlEaQfbGD-170" value="user selects user&#39;s account type:&lt;div&gt;Checking&lt;/div&gt;&lt;div&gt;Saving&lt;/div&gt;" style="rounded=1;whiteSpace=wrap;html=1;absoluteArcSize=1;arcSize=14;strokeWidth=3;fontStyle=1" vertex="1" parent="1">
          <mxGeometry x="746.26" y="1250" width="116.25" height="60" as="geometry" />
        </mxCell>
        <mxCell id="yHJsmsNDHW4LlEaQfbGD-175" value="" style="edgeStyle=orthogonalEdgeStyle;rounded=0;orthogonalLoop=1;jettySize=auto;html=1;strokeWidth=3;fontStyle=1" edge="1" parent="1" source="yHJsmsNDHW4LlEaQfbGD-172" target="yHJsmsNDHW4LlEaQfbGD-174">
          <mxGeometry relative="1" as="geometry" />
        </mxCell>
        <mxCell id="yHJsmsNDHW4LlEaQfbGD-172" value="user selects&amp;nbsp;&lt;div&gt;amount:&lt;/div&gt;&lt;div&gt;$20&lt;/div&gt;&lt;div&gt;$40&lt;/div&gt;&lt;div&gt;$60&lt;/div&gt;&lt;div&gt;$80&lt;/div&gt;&lt;div&gt;$100&lt;/div&gt;&lt;div&gt;custom amount&lt;/div&gt;" style="whiteSpace=wrap;html=1;rounded=1;arcSize=14;strokeWidth=3;fontStyle=1" vertex="1" parent="1">
          <mxGeometry x="731.89" y="1340" width="144.99" height="120" as="geometry" />
        </mxCell>
        <mxCell id="yHJsmsNDHW4LlEaQfbGD-181" value="" style="edgeStyle=orthogonalEdgeStyle;rounded=0;orthogonalLoop=1;jettySize=auto;html=1;strokeWidth=3;fontStyle=1" edge="1" parent="1" source="yHJsmsNDHW4LlEaQfbGD-174" target="yHJsmsNDHW4LlEaQfbGD-178">
          <mxGeometry relative="1" as="geometry" />
        </mxCell>
        <mxCell id="yHJsmsNDHW4LlEaQfbGD-174" value="User selects&amp;nbsp;&lt;div&gt;amount to withdraw&lt;/div&gt;" style="whiteSpace=wrap;html=1;rounded=1;arcSize=14;strokeWidth=3;fontStyle=1" vertex="1" parent="1">
          <mxGeometry x="744.38" y="1520" width="120" height="60" as="geometry" />
        </mxCell>
        <mxCell id="yHJsmsNDHW4LlEaQfbGD-185" value="" style="edgeStyle=orthogonalEdgeStyle;rounded=0;orthogonalLoop=1;jettySize=auto;html=1;strokeWidth=3;fontStyle=1" edge="1" parent="1" source="yHJsmsNDHW4LlEaQfbGD-178" target="yHJsmsNDHW4LlEaQfbGD-184">
          <mxGeometry relative="1" as="geometry" />
        </mxCell>
        <mxCell id="yHJsmsNDHW4LlEaQfbGD-178" value="System process amount" style="strokeWidth=3;html=1;shape=mxgraph.flowchart.delay;whiteSpace=wrap;fontStyle=1" vertex="1" parent="1">
          <mxGeometry x="754.38" y="1650" width="100" height="60" as="geometry" />
        </mxCell>
        <mxCell id="yHJsmsNDHW4LlEaQfbGD-226" style="edgeStyle=orthogonalEdgeStyle;rounded=0;orthogonalLoop=1;jettySize=auto;html=1;entryX=0.5;entryY=0;entryDx=0;entryDy=0;strokeWidth=3;fontStyle=1" edge="1" parent="1" source="yHJsmsNDHW4LlEaQfbGD-179" target="yHJsmsNDHW4LlEaQfbGD-187">
          <mxGeometry relative="1" as="geometry">
            <Array as="points">
              <mxPoint x="480" y="2050" />
              <mxPoint x="335" y="2050" />
            </Array>
          </mxGeometry>
        </mxCell>
        <mxCell id="yHJsmsNDHW4LlEaQfbGD-179" value="System displays amount&amp;nbsp;" style="whiteSpace=wrap;html=1;rounded=1;arcSize=14;strokeWidth=3;fontStyle=1" vertex="1" parent="1">
          <mxGeometry x="421.88" y="1445" width="116.25" height="50" as="geometry" />
        </mxCell>
        <mxCell id="yHJsmsNDHW4LlEaQfbGD-186" value="" style="edgeStyle=orthogonalEdgeStyle;rounded=0;orthogonalLoop=1;jettySize=auto;html=1;strokeWidth=3;fontStyle=1" edge="1" parent="1" source="yHJsmsNDHW4LlEaQfbGD-180" target="yHJsmsNDHW4LlEaQfbGD-179">
          <mxGeometry relative="1" as="geometry" />
        </mxCell>
        <mxCell id="yHJsmsNDHW4LlEaQfbGD-180" value="systems processes transaction" style="strokeWidth=3;html=1;shape=mxgraph.flowchart.delay;whiteSpace=wrap;fontStyle=1" vertex="1" parent="1">
          <mxGeometry x="425" y="1340" width="111.87" height="70" as="geometry" />
        </mxCell>
        <mxCell id="yHJsmsNDHW4LlEaQfbGD-225" style="edgeStyle=orthogonalEdgeStyle;rounded=0;orthogonalLoop=1;jettySize=auto;html=1;entryX=0.5;entryY=0;entryDx=0;entryDy=0;strokeWidth=3;fontStyle=1" edge="1" parent="1" source="yHJsmsNDHW4LlEaQfbGD-184" target="yHJsmsNDHW4LlEaQfbGD-187">
          <mxGeometry relative="1" as="geometry">
            <Array as="points">
              <mxPoint x="804" y="2050" />
              <mxPoint x="335" y="2050" />
            </Array>
          </mxGeometry>
        </mxCell>
        <mxCell id="yHJsmsNDHW4LlEaQfbGD-184" value="System prompts user to take cash" style="rounded=1;whiteSpace=wrap;html=1;strokeWidth=3;fontStyle=1" vertex="1" parent="1">
          <mxGeometry x="744.39" y="1750" width="120" height="60" as="geometry" />
        </mxCell>
        <mxCell id="yHJsmsNDHW4LlEaQfbGD-231" value="" style="edgeStyle=orthogonalEdgeStyle;rounded=0;orthogonalLoop=1;jettySize=auto;html=1;strokeWidth=3;fontStyle=1" edge="1" parent="1" source="yHJsmsNDHW4LlEaQfbGD-187" target="yHJsmsNDHW4LlEaQfbGD-189">
          <mxGeometry relative="1" as="geometry" />
        </mxCell>
        <mxCell id="yHJsmsNDHW4LlEaQfbGD-187" value="System prompts user to print receipt" style="rounded=1;whiteSpace=wrap;html=1;absoluteArcSize=1;arcSize=14;strokeWidth=3;fontStyle=1" vertex="1" parent="1">
          <mxGeometry x="285" y="2240" width="100" height="100" as="geometry" />
        </mxCell>
        <mxCell id="yHJsmsNDHW4LlEaQfbGD-192" value="yes&amp;nbsp;" style="edgeStyle=orthogonalEdgeStyle;rounded=0;orthogonalLoop=1;jettySize=auto;html=1;strokeWidth=3;fontStyle=1" edge="1" parent="1" source="yHJsmsNDHW4LlEaQfbGD-189" target="yHJsmsNDHW4LlEaQfbGD-191">
          <mxGeometry relative="1" as="geometry" />
        </mxCell>
        <mxCell id="yHJsmsNDHW4LlEaQfbGD-208" value="No" style="edgeStyle=orthogonalEdgeStyle;rounded=0;orthogonalLoop=1;jettySize=auto;html=1;entryX=1;entryY=0.5;entryDx=0;entryDy=0;strokeWidth=3;fontStyle=1" edge="1" parent="1" source="yHJsmsNDHW4LlEaQfbGD-189" target="yHJsmsNDHW4LlEaQfbGD-193">
          <mxGeometry relative="1" as="geometry">
            <Array as="points">
              <mxPoint x="440" y="2430" />
              <mxPoint x="440" y="2700" />
            </Array>
          </mxGeometry>
        </mxCell>
        <mxCell id="yHJsmsNDHW4LlEaQfbGD-189" value="Print receipt?" style="rhombus;whiteSpace=wrap;html=1;rounded=1;arcSize=14;strokeWidth=3;fontStyle=1" vertex="1" parent="1">
          <mxGeometry x="295" y="2390" width="80" height="80" as="geometry" />
        </mxCell>
        <mxCell id="yHJsmsNDHW4LlEaQfbGD-196" value="" style="edgeStyle=orthogonalEdgeStyle;rounded=0;orthogonalLoop=1;jettySize=auto;html=1;strokeWidth=3;fontStyle=1" edge="1" parent="1" source="yHJsmsNDHW4LlEaQfbGD-191" target="yHJsmsNDHW4LlEaQfbGD-193">
          <mxGeometry relative="1" as="geometry" />
        </mxCell>
        <mxCell id="yHJsmsNDHW4LlEaQfbGD-191" value="Systems prints receipt&amp;nbsp;" style="shape=document;whiteSpace=wrap;html=1;boundedLbl=1;strokeWidth=3;fontStyle=1" vertex="1" parent="1">
          <mxGeometry x="277.5" y="2530" width="120" height="80" as="geometry" />
        </mxCell>
        <mxCell id="yHJsmsNDHW4LlEaQfbGD-198" value="" style="edgeStyle=orthogonalEdgeStyle;rounded=0;orthogonalLoop=1;jettySize=auto;html=1;strokeWidth=3;fontStyle=1" edge="1" parent="1" source="yHJsmsNDHW4LlEaQfbGD-193" target="yHJsmsNDHW4LlEaQfbGD-197">
          <mxGeometry relative="1" as="geometry" />
        </mxCell>
        <mxCell id="yHJsmsNDHW4LlEaQfbGD-193" value="System prompts user to perform another transaction&amp;nbsp;" style="whiteSpace=wrap;html=1;rounded=1;arcSize=14;strokeWidth=3;fontStyle=1" vertex="1" parent="1">
          <mxGeometry x="277.5" y="2670" width="120" height="60" as="geometry" />
        </mxCell>
        <mxCell id="yHJsmsNDHW4LlEaQfbGD-200" value="No" style="edgeStyle=orthogonalEdgeStyle;rounded=0;orthogonalLoop=1;jettySize=auto;html=1;strokeWidth=3;fontStyle=1" edge="1" parent="1" source="yHJsmsNDHW4LlEaQfbGD-197" target="yHJsmsNDHW4LlEaQfbGD-199">
          <mxGeometry relative="1" as="geometry" />
        </mxCell>
        <mxCell id="yHJsmsNDHW4LlEaQfbGD-212" value="Yes&amp;nbsp;" style="edgeStyle=orthogonalEdgeStyle;rounded=0;orthogonalLoop=1;jettySize=auto;html=1;entryX=0;entryY=0.25;entryDx=0;entryDy=0;strokeWidth=3;fontStyle=1" edge="1" parent="1" source="yHJsmsNDHW4LlEaQfbGD-197" target="yHJsmsNDHW4LlEaQfbGD-38">
          <mxGeometry relative="1" as="geometry">
            <Array as="points">
              <mxPoint x="-530" y="2920" />
              <mxPoint x="-530" y="429" />
            </Array>
          </mxGeometry>
        </mxCell>
        <mxCell id="yHJsmsNDHW4LlEaQfbGD-197" value="Do you wish to&amp;nbsp;&lt;div&gt;perform another&lt;/div&gt;&lt;div&gt;&amp;nbsp;transaction?&lt;/div&gt;" style="rhombus;whiteSpace=wrap;html=1;rounded=1;arcSize=14;strokeWidth=3;fontStyle=1" vertex="1" parent="1">
          <mxGeometry x="252.5" y="2850" width="170" height="140" as="geometry" />
        </mxCell>
        <mxCell id="yHJsmsNDHW4LlEaQfbGD-202" value="" style="edgeStyle=orthogonalEdgeStyle;rounded=0;orthogonalLoop=1;jettySize=auto;html=1;strokeWidth=3;fontStyle=1" edge="1" parent="1" source="yHJsmsNDHW4LlEaQfbGD-199" target="yHJsmsNDHW4LlEaQfbGD-201">
          <mxGeometry relative="1" as="geometry" />
        </mxCell>
        <mxCell id="yHJsmsNDHW4LlEaQfbGD-199" value="System ejects user card" style="whiteSpace=wrap;html=1;rounded=1;arcSize=14;strokeWidth=3;fontStyle=1" vertex="1" parent="1">
          <mxGeometry x="277.5" y="3070" width="120" height="60" as="geometry" />
        </mxCell>
        <mxCell id="yHJsmsNDHW4LlEaQfbGD-201" value="End" style="ellipse;whiteSpace=wrap;html=1;rounded=1;arcSize=14;strokeWidth=3;fontStyle=1" vertex="1" parent="1">
          <mxGeometry x="287.5" y="3200" width="100" height="50" as="geometry" />
        </mxCell>
        <mxCell id="yHJsmsNDHW4LlEaQfbGD-203" style="edgeStyle=orthogonalEdgeStyle;rounded=0;orthogonalLoop=1;jettySize=auto;html=1;exitX=0.5;exitY=1;exitDx=0;exitDy=0;strokeWidth=3;fontStyle=1" edge="1" parent="1" source="yHJsmsNDHW4LlEaQfbGD-23" target="yHJsmsNDHW4LlEaQfbGD-32">
          <mxGeometry relative="1" as="geometry">
            <Array as="points">
              <mxPoint x="337" y="1020" />
              <mxPoint x="-130" y="1020" />
            </Array>
          </mxGeometry>
        </mxCell>
        <mxCell id="yHJsmsNDHW4LlEaQfbGD-228" style="edgeStyle=orthogonalEdgeStyle;rounded=0;orthogonalLoop=1;jettySize=auto;html=1;strokeWidth=3;fontStyle=1" edge="1" parent="1" source="yHJsmsNDHW4LlEaQfbGD-137" target="yHJsmsNDHW4LlEaQfbGD-187">
          <mxGeometry relative="1" as="geometry">
            <Array as="points">
              <mxPoint x="-139" y="2050" />
              <mxPoint x="335" y="2050" />
            </Array>
          </mxGeometry>
        </mxCell>
        <mxCell id="yHJsmsNDHW4LlEaQfbGD-232" value="&lt;font style=&quot;font-size: 72px;&quot;&gt;&lt;b&gt;Process Flow Diagram for DC Bank ATM Transactions&lt;/b&gt;&lt;/font&gt;" style="text;html=1;align=center;verticalAlign=middle;whiteSpace=wrap;rounded=0;" vertex="1" parent="1">
          <mxGeometry x="-1013" y="-392" width="2788" height="442" as="geometry" />
        </mxCell>
      </root>
    </mxGraphModel>
  </diagram>
</mxfile>
